PathFileType	4	(X/Y/Z)	C:/Users/beibeiliu/ov580/test_trc/capture2\sequence.12_training_dense_right.trc
DataRate	CameraRate	NumFrames	NumMarkers	Units	OrigDataRate	OrigDataStartFrame	OrigNumFrames
120	120	21	19	mm	120	323	369
Frame#	Time	ThumbCMC			ThumbMCP			ThumbIP			ThumbTip			IndexMCP			IndexPIP			IndexTip			MiddleMCP			MiddlePIP			MiddleTip			RingMCP			RingPIP			RingTip			PinkyMCP			PinkyPIP			PinkyTip			BackHand1			BackHand2			BackHand3	
		X0	Y0	Z0	X1	Y1	Z1	X2	Y2	Z2	X3	Y3	Z3	X4	Y4	Z4	X5	Y5	Z5	X6	Y6	Z6	X7	Y7	Z7	X8	Y8	Z8	X9	Y9	Z9	X10	Y10	Z10	X11	Y11	Z11	X12	Y12	Z12	X13	Y13	Z13	X14	Y14	Z14	X15	Y15	Z15	X16	Y16	Z16	X17	Y17	Z17	X18	Y18	Z18	
322	2.68333	105.57	80.0045	46.9818	93.6946	79.6774	16.6924	81.4185	90.0161	-7.64222	82.6217	96.3137	-27.9431	129.443	125.882	4.35668	109.484	124.691	-22.2451	99.0997	104.406	-38.0327	159.354	126.197	-2.34989	159.946	138.876	-26.2024	156.806	150.977	-54.6088	174.959	108.253	-7.0317	179.825	121.591	-30.6792	179.831	135.05	-52.5578	183.446	80.7928	-11.3782	187.292	89.5842	-26.7517	205.104	98.547	-47.0561	172.848	75.1527	32.8667	168.651	57.1391	54.0419	148.518	82.8109	57.2106	
323	2.69167	109.283	80.4884	49.4452	93.8133	83.1378	17.8011	83.3398	89.8579	-2.3071	80.7323	98.1596	-28.3462	133.494	126.377	1.85565	114.837	123.633	-22.7343	95.1598	104.894	-36.0686	165.943	117.532	-3.16099	163.791	134.113	-30.2742	160.862	143.105	-54.0545	176.575	98.8805	-7.19558	180.214	115.58	-31.4494	182.819	123.869	-55.2556	180.793	73.8186	-13.5771	186.251	84.2293	-30.8244	202.417	90.095	-49.0775	170.628	72.4248	33.3324	167.113	54.2843	53.8433	151.366	82.6773	59.2453	
324	2.7	111.61	83.8335	47.7016	92.0489	87.2648	18.2679	84.1419	92.6217	-4.35244	80.3584	99.5541	-28.019	136.431	125.128	1.54749	114.71	124.629	-22.3742	94.2579	105.949	-36.267	167.629	114.075	-7.12606	167.114	127.948	-34.1083	163.777	135.916	-56.0765	177.493	93.8403	-11.0111	183.677	103.429	-34.8022	182.952	117.853	-57.4813	177.581	70.5082	-15.3766	184.517	74.19	-34.9627	196.128	78.8682	-50.9476	170.145	62.3816	29.1236	165.838	48.5084	51.2782	153.458	82.8676	52.9976	
325	2.70833	113.475	82.9496	51.2443	93.1698	87.692	20.1183	82.9936	95.2	-3.0596	80.7221	101.055	-28.1933	138.675	123.379	-1.41763	121.818	121.879	-23.1702	98.1294	107.289	-34.6148	169.31	109.866	-10.6593	169.03	121.354	-36.5255	165.443	128.476	-60.9124	175.582	89.1126	-12.8658	181.076	98.4514	-35.2948	182.346	109.185	-64.1283	175.812	60.3559	-19.0088	182.56	66.6679	-37.9904	193.973	72.266	-59.3014	169.814	60.7762	27.1285	164.705	44.3612	48.6231	155.997	80.8903	52.5664	
326	2.71667	114.245	84.5576	52.4651	95.649	87.9269	19.7257	86.9126	97.331	-5.08587	84.9116	100.242	-26.6936	144.03	116.545	-7.56321	124.97	118.591	-25.4777	98.9644	108.858	-34.2866	171.382	99.8272	-11.9078	171.614	111.994	-41.9388	167.015	123.061	-65.906	174.802	78.9953	-15.0906	182.513	86.8137	-41.7423	181.224	99.2834	-66.4179	173.501	51.9535	-20.2878	179.283	56.7634	-42.0142	190.776	57.5758	-59.1276	167.481	56.467	27.3371	163.581	38.1308	50.2573	158.342	71.6203	51.9093	
327	2.725	119.417	83.5195	46.6245	94.3654	90.7199	23.3803	87.3906	96.5713	-0.49742	85.0344	100.224	-28.3232	147.01	113.713	-6.54411	125.56	115.415	-28.4329	97.7002	105.577	-36.5783	173.12	92.9444	-18.3592	172.869	103.769	-41.4134	166.382	112.803	-72.0551	175.536	71.0676	-21.3217	179.576	81.7478	-43.0819	178.676	90.2685	-69.9912	169.064	44.3423	-21.1191	174.333	45.4795	-42.5362	184.431	47.3947	-66.8567	167.918	48.1143	24.154	162.034	39.3545	50.8403	160.218	71.2048	47.7599	
328	2.73333	120.247	84.6754	46.8139	99.7862	89.4077	20.1398	88.5929	99.0063	-0.566986	81.4222	104.572	-26.2338	148.335	109.529	-9.76783	125.475	112.543	-31.6504	98.6557	102.097	-37.4273	173.677	85.969	-20.8133	171.513	98.8742	-49.1309	166.344	103.547	-75.3623	174.795	68.6518	-23.7394	177.756	69.4849	-48.4544	175.414	80.0442	-78.5545	164.375	40.8604	-20.4786	169.853	39.594	-46.0193	178.167	36.0176	-63.3848	165.439	45.9624	24.8625	159.469	33.2668	48.1559	158.88	69.8327	45.7607	
329	2.74167	123.983	85.1218	46.3265	101.371	91.0389	20.473	89.6693	103.613	-2.61481	86.7024	103.354	-26.2321	152.247	101.306	-14.4565	126.453	108.021	-35.6328	97.1406	95.2772	-39.1594	173.221	79.4768	-27.1638	171.315	87.5979	-55.1807	163.923	96.4965	-80.611	169.876	54.9076	-24.0301	173.981	57.8548	-54.7336	171.433	66.6313	-77.4223	159.583	30.5106	-21.848	161.864	25.2461	-44.3857	167.643	25.355	-68.5912	163.881	43.6238	24.1492	159.533	31.1833	48.2474	162.014	68.8187	46.7014	
330	2.75	128.87	85.9222	40.6181	104.693	95.3453	19.0291	95.5924	101.321	-3.14572	87.5445	105.552	-30.473	154.131	94.4469	-19.4385	128.855	101.286	-38.7304	100.753	96.7687	-39.3745	173.388	72.2603	-28.8147	170.859	76.1669	-55.1644	161.933	80.7585	-82.7812	168.718	47.7738	-28.9605	170.735	52.5217	-57.5043	165.404	55.9295	-83.4717	152.705	23.3639	-20.4504	154.095	20.4359	-44.0557	159.33	16.2707	-68.773	160.574	38.1542	23.5028	156.478	26.9694	46.8385	161.935	63.7185	44.2452	
331	2.75833	131.06	87.7074	45.3912	108.039	96.5769	15.4282	98.1889	102.757	-8.31242	90.2955	105.424	-29.7527	155.167	93.156	-24.7244	129.866	101.143	-40.742	104.423	94.6264	-42.5219	171.709	64.2461	-31.0992	167.019	65.4661	-61.005	158.761	73.3355	-86.5022	163.01	40.6632	-26.6713	165.439	40.6699	-55.5427	160.24	43.7387	-81.8452	148.411	20.54	-23.7374	147.808	15.1914	-44.944	149.937	8.46172	-66.4039	158.664	29.735	19.9711	151.136	23.7294	49.8372	162.765	57.6706	37.9622	
332	2.76667	135.523	82.1362	40.7771	111.029	95.738	19.6479	101.424	103.772	-7.82632	93.5923	101.269	-32.4703	158.548	86.6598	-25.9161	135.585	92.3636	-43.7769	106.703	93.9119	-43.7519	168.886	56.0588	-33.0228	166.137	58.5651	-62.2596	153.893	63.4563	-91.7915	160.767	32.2653	-30.7537	159.926	32.1949	-56.8604	156.134	40.5549	-85.5294	141.949	13.1904	-25.0948	141.514	10.753	-47.8622	139.576	1.16577	-71.3065	156.832	24.7942	16.3115	150.003	21.5947	48.0705	163.061	51.955	40.0337	
333	2.775	137.829	82.6283	40.1058	115.297	94.3562	15.1901	103.326	103.064	-6.42316	95.8674	100.54	-28.8663	158.806	79.4513	-26.807	139.331	92.323	-43.4609	106.513	97.5664	-43.621	166.469	46.7722	-34.1097	163.434	52.0832	-64.5862	150.243	56.3746	-90.4192	158.596	28.0129	-33.4527	157.02	27.2554	-59.999	150.104	32.3137	-83.8915	139.917	13.9461	-24.388	136.672	7.69475	-42.3673	135.919	-4.26785	-70.7505	153.329	21.756	16.7802	149.821	20.0076	47.0064	166.439	48.8856	34.0917	
334	2.78333	139.833	79.6565	36.402	116.402	93.051	15.0487	105.171	101.078	-9.8692	97.239	94.1722	-32.1206	160.137	75.3296	-27.2948	135.878	87.32	-46.2011	105.281	95.386	-44.2757	165.622	45.7491	-35.8833	163.278	49.3106	-61.0214	149.251	54.1549	-92.8634	154.361	25.2697	-29.3584	153.009	21.1762	-58.5553	148.308	30.2271	-83.905	135.068	9.44887	-20.2664	132.663	2.45889	-45.4946	130.947	-5.98527	-65.3425	150.466	20.7895	17.6239	148.784	20.562	49.5077	166.012	46.8045	37.4036	
335	2.79167	140.69	83.4563	35.8716	116.922	93.4766	13.5157	105.924	102.694	-10.9422	97.5008	97.7366	-29.6741	156.556	75.2978	-31.6103	135.422	82.5896	-47.549	106.335	96.2888	-44.6806	161.716	40.2232	-33.6881	158.716	44.2073	-64.2907	145.983	49.7704	-93.05	154.327	25.6458	-31.3174	153.388	22.5054	-59.3149	143.895	25.6686	-88.4481	134.361	10.8064	-19.0513	129.32	1.30227	-42.271	130.549	-7.83847	-63.2828	152.42	21.3685	21.4287	149.377	18.5197	49.6422	164.96	49.2542	37.4022	
336	2.8	140.919	77.3464	35.1225	117.463	96.362	16.4482	106.835	97.8773	-10.4228	97.5819	95.7497	-30.5356	156.736	68.5773	-28.7666	137.32	84.8581	-47.7632	104.722	91.2042	-45.9268	162.153	40.6625	-33.5835	159.036	43.0059	-62.1134	143.246	48.5364	-94.3301	153.2	23.5163	-30.652	150.532	18.2514	-56.9495	142.915	24.5398	-84.136	133.069	8.81756	-21.199	128.135	0.356874	-44.3432	127.38	-6.16984	-65.1111	150.94	19.1219	17.3464	148.39	16.7226	44.9885	164.966	45.1852	35.9106	
337	2.80833	142.375	80.6455	37.6616	119.147	95.0779	12.344	108.375	99.6519	-10.3007	98.0976	96.2003	-34.3232	157.722	71.7335	-32.9947	134.582	80.7735	-49.7506	109.489	91.5412	-47.3433	161.319	36.8307	-37.6985	159.366	42.6457	-63.7989	145.165	46.193	-89.3339	150.063	18.5192	-29.4257	148.884	15.7926	-56.735	142.738	23.2902	-86.1335	132.328	7.8782	-19.3825	128.479	0.339618	-45.1736	126.477	-10.7214	-66.8186	150.26	15.8336	20.4195	148.024	19.139	47.689	164.301	45.6237	33.0915	
338	2.81667	142.212	76.2512	38.9612	120.853	94.5698	11.8408	108.812	99.9827	-12.4351	100.757	94.8089	-34.3706	156.975	64.6674	-30.0037	136.225	83.0835	-49.6129	106.71	89.6095	-46.7941	161.244	35.346	-38.5446	156.44	38.658	-67.3912	145.548	48.4354	-91.3499	150.731	16.7443	-30.414	149.614	16.9549	-58.4619	142.039	20.4644	-85.0185	130.677	6.17943	-21.1637	125.255	-2.25748	-44.3547	125.451	-9.57776	-66.3099	151.547	17.9973	20.6823	148.844	18.0872	46.0747	166.46	43.3773	34.711	
339	2.825	145.114	77.7196	34.563	122.593	91.3035	17.1232	112.771	96.9553	-11.3244	102.226	95.2365	-36.352	156.68	65.0197	-33.7981	140.901	79.8689	-48.9299	110.734	91.7542	-48.0623	161.898	33.8589	-38.1952	156.679	36.2117	-62.9597	143.69	46.6625	-94.4351	150.341	16.1765	-30.4436	147.976	14.1265	-57.1468	142.386	22.4318	-87.7733	128.829	6.38316	-18.9176	125.201	-1.49849	-40.0101	121.029	-9.34098	-63.5716	149.879	15.1571	19.2527	148.748	16.772	50.6751	168.263	42.9573	34.796	
340	2.83333	146.755	74.4103	35.2407	125.679	95.272	13.3195	115.327	103.182	-10.2	104.263	97.2497	-32.9299	160.75	62.869	-31.4591	136.507	75.8171	-51.8012	112.749	87.9961	-49.3811	160.371	31.609	-39.8322	156.257	36.2997	-66.7938	143.023	42.3391	-92.0088	148.792	14.7859	-29.6943	147.21	13.1534	-58.7832	141.485	19.2505	-83.1342	127.747	5.62766	-19.9373	122.736	-2.4997	-39.9336	117.864	-11.2317	-65.7094	148.334	15.295	18.6481	145.949	12.8957	44.0765	168.521	38.9178	30.3448	
341	2.84167	152.17	77.5514	34.3103	130.412	90.9939	11.4199	119.088	101.519	-11.1868	107.406	96.7322	-35.005	159.578	60.12	-35.9455	138.039	75.8761	-53.1755	114.211	87.9608	-49.9133	161.919	33.3102	-39.2084	156.615	35.1603	-65.7973	138.432	40.9505	-93.4985	146.253	13.7101	-29.7624	144.388	11.2105	-58.9567	137.914	15.3482	-84.139	125.176	1.71361	-22.2969	121.212	-2.50047	-40.2662	117.116	-8.66199	-64.2405	149.437	14.3379	20.1757	150.809	14.5024	47.1888	166.772	36.7626	30.2437	
342	2.85	155.09	77.2556	31.5683	132.801	90.6042	11.7512	121.1	97.3407	-12.846	110.642	96.8511	-35.4462	160.009	55.7512	-33.524	141.722	70.44	-53.5015	114.568	87.6297	-49.7416	162.083	29.6523	-40.9489	154.091	30.3128	-65.1739	140.784	39.9109	-91.523	147.27	12.1028	-33.6737	143.164	9.03568	-57.4015	136.32	16.3433	-86.3855	123.796	1.0392	-19.6213	119.831	-2.25557	-43.2891	111.714	-12.3673	-64.6184	148.677	10.4635	15.5017	148.153	13.1867	46.9034	168.43	33.7613	32.1692	
